<svg width="24" height="24" viewBox="0 0 24 24" fill="none" xmlns="http://www.w3.org/2000/svg">
<path d="M20.0285 13.0771C20.0735 12.7333 20.096 12.3781 20.096 12C20.096 11.6333 20.0735 11.2667 20.0172 10.9229L22.2999 9.1125C22.5022 8.95208 22.5585 8.64271 22.4348 8.41354L20.2759 4.60937C20.1409 4.35729 19.8598 4.27708 19.6124 4.35729L16.925 5.45729C16.3628 5.02187 15.7669 4.65521 15.1034 4.38021L14.6986 1.46979C14.6537 1.19479 14.4288 1 14.1589 1H9.84108C9.57121 1 9.35757 1.19479 9.31259 1.46979L8.9078 4.38021C8.24438 4.65521 7.63718 5.03333 7.08621 5.45729L4.3988 4.35729C4.15142 4.26562 3.87032 4.35729 3.73538 4.60937L1.58771 8.41354C1.45277 8.65417 1.49775 8.95208 1.72264 9.1125L4.00525 10.9229C3.94903 11.2667 3.90405 11.6448 3.90405 12C3.90405 12.3552 3.92654 12.7333 3.98276 13.0771L1.70015 14.8875C1.49775 15.0479 1.44153 15.3573 1.56522 15.5865L3.72414 19.3906C3.85907 19.6427 4.14018 19.7229 4.38756 19.6427L7.07496 18.5427C7.63718 18.9781 8.23313 19.3448 8.89655 19.6198L9.30135 22.5302C9.35757 22.8052 9.57121 23 9.84108 23H14.1589C14.4288 23 14.6537 22.8052 14.6874 22.5302L15.0922 19.6198C15.7556 19.3448 16.3628 18.9781 16.9138 18.5427L19.6012 19.6427C19.8486 19.7344 20.1297 19.6427 20.2646 19.3906L22.4235 15.5865C22.5585 15.3344 22.5022 15.0479 22.2886 14.8875L20.0285 13.0771ZM12 16.125C9.77361 16.125 7.95202 14.2687 7.95202 12C7.95202 9.73125 9.77361 7.875 12 7.875C14.2264 7.875 16.048 9.73125 16.048 12C16.048 14.2687 14.2264 16.125 12 16.125Z" fill="#5D5F66" style="fill:#5D5F66;fill:color(display-p3 0.3647 0.3725 0.4000);fill-opacity:1;"/>
</svg>
