<svg width="26" height="26" viewBox="0 0 26 26" fill="none" xmlns="http://www.w3.org/2000/svg">
<path d="M7.26096 2.85683H19.8349C21.03 2.85683 21.9996 3.82646 21.9996 5.02152V20.4283C21.9996 21.6234 21.03 22.593 19.8349 22.593H7.26096C5.26466 22.593 3.64453 20.9729 3.64453 18.9766V6.47189C3.64453 4.47559 5.26466 2.85547 7.26096 2.85547V2.85683Z" fill="#DDFF79" style="fill:#DDFF79;fill:color(display-p3 0.8668 1.0000 0.4744);fill-opacity:1;"/>
<path d="M12.875 8.39953C12.875 9.01743 13.5567 9.39225 14.0782 9.06089L15.7459 8.00434C16.0053 7.84002 16.338 7.84274 16.5946 8.01114L18.1414 9.02694C18.6629 9.36916 19.3541 8.9957 19.3541 8.37237V3.091C19.3541 3.00952 19.3419 2.93076 19.3188 2.85742H12.9103C12.8872 2.93076 12.875 3.00952 12.875 3.091V8.39953Z" fill="#69B91C" style="fill:#69B91C;fill:color(display-p3 0.4128 0.7255 0.1081);fill-opacity:1;"/>
<path d="M8.09991 18.1055C7.58115 18.1055 7.16016 18.5265 7.16016 19.0452C7.16016 19.564 7.58115 19.985 8.09991 19.985H21.9993V18.1055H8.09991Z" fill="#69B91C" style="fill:#69B91C;fill:color(display-p3 0.4128 0.7255 0.1081);fill-opacity:1;"/>
</svg>
