<svg width="190" height="123" viewBox="0 0 190 123" fill="none" xmlns="http://www.w3.org/2000/svg">
<circle cx="129.525" cy="62.4589" r="60.4589" fill="#3388FF" fill-opacity="0.2" style="fill:#3388FF;fill:color(display-p3 0.1992 0.5328 1.0000);fill-opacity:0.2;"/>
<path d="M158.355 77.3691L158.465 77.4326C160.745 78.7489 161.885 79.407 162.349 80.4489C162.499 80.7854 162.595 81.1434 162.633 81.5097C162.752 82.644 162.094 83.7839 160.778 86.0637L157.279 92.1245C155.963 94.4043 155.305 95.5442 154.263 96.0081C153.926 96.1579 153.568 96.2538 153.202 96.2923C152.068 96.4115 150.928 95.7534 148.648 94.4372L148.538 94.3737L158.355 77.3691Z" fill="url(#paint0_linear_952_2079)" style=""/>
<path d="M102.104 44.8906L101.994 44.8271C99.7137 43.5109 98.5739 42.8528 97.4396 42.972C97.0732 43.0105 96.7153 43.1064 96.3788 43.2562C95.3368 43.7201 94.6787 44.86 93.3625 47.1398L89.8633 53.2006C88.547 55.4804 87.8889 56.6203 88.0081 57.7546C88.0466 58.1209 88.1426 58.4789 88.2924 58.8154C88.7563 59.8573 89.8962 60.5154 92.1759 61.8317L92.2859 61.8952L102.104 44.8906Z" fill="url(#paint1_linear_952_2079)" style=""/>
<path d="M154.286 19.4605C158.333 21.797 159.72 26.9718 157.383 31.0188C155.424 34.4134 151.468 35.9339 147.855 34.9574C147.322 34.8132 146.751 35.1686 146.719 35.7203L146.457 40.3042C146.371 41.8128 147.142 43.2412 148.451 43.9968L150.268 45.0459C158.627 49.872 162.807 52.2849 164.508 56.1053C165.057 57.3391 165.409 58.6518 165.55 59.995C165.987 64.154 163.574 68.3336 158.748 76.6927L149.436 92.8215C144.61 101.18 142.196 105.36 138.376 107.061C137.142 107.611 135.83 107.962 134.486 108.104C130.327 108.541 126.147 106.128 117.788 101.302L101.659 91.9902C93.3003 87.1641 89.1211 84.7502 87.4202 80.9298C86.8708 79.696 86.5191 78.3833 86.3779 77.0401C85.9408 72.8811 88.3532 68.701 93.1793 60.3418L102.491 44.213C107.317 35.854 109.731 31.6747 113.552 29.9738C114.785 29.4245 116.098 29.0727 117.441 28.9315C121.6 28.4946 125.78 30.9079 134.139 35.7339L136.02 36.8197C137.328 37.5752 138.951 37.5289 140.214 36.7001L144.037 34.1924C144.501 33.8877 144.521 33.2111 144.125 32.822C141.436 30.1839 140.758 25.9705 142.728 22.5575C145.065 18.5109 150.239 17.1242 154.286 19.4605Z" fill="#96C4FC" style="fill:#96C4FC;fill:color(display-p3 0.5873 0.7686 0.9901);fill-opacity:1;"/>
<g filter="url(#filter0_d_952_2079)">
<circle cx="139.337" cy="66.3875" r="5.86268" transform="rotate(30 139.337 66.3875)" fill="#1D1E22" style="fill:#1D1E22;fill:color(display-p3 0.1137 0.1176 0.1333);fill-opacity:1;"/>
</g>
<g filter="url(#filter1_d_952_2079)">
<circle cx="121.124" cy="55.8719" r="5.86268" transform="rotate(30 121.124 55.8719)" fill="#1D1E22" style="fill:#1D1E22;fill:color(display-p3 0.1137 0.1176 0.1333);fill-opacity:1;"/>
</g>
<circle cx="60.4745" cy="62.4589" r="60.4589" fill="#3388FF" style="fill:#3388FF;fill:color(display-p3 0.1992 0.5328 1.0000);fill-opacity:1;"/>
<circle cx="60.4736" cy="62.46" r="31.2764" stroke="white" style="stroke:white;stroke-opacity:1;" stroke-width="12"/>
<defs>
<filter id="filter0_d_952_2079" x="128.475" y="56.0234" width="21.7266" height="21.7285" filterUnits="userSpaceOnUse" color-interpolation-filters="sRGB">
<feFlood flood-opacity="0" result="BackgroundImageFix"/>
<feColorMatrix in="SourceAlpha" type="matrix" values="0 0 0 0 0 0 0 0 0 0 0 0 0 0 0 0 0 0 127 0" result="hardAlpha"/>
<feOffset dy="0.5"/>
<feGaussianBlur stdDeviation="2.5"/>
<feComposite in2="hardAlpha" operator="out"/>
<feColorMatrix type="matrix" values="0 0 0 0 0.947392 0 0 0 0 0.970189 0 0 0 0 1 0 0 0 0.2 0"/>
<feBlend mode="normal" in2="BackgroundImageFix" result="effect1_dropShadow_952_2079"/>
<feBlend mode="normal" in="SourceGraphic" in2="effect1_dropShadow_952_2079" result="shape"/>
</filter>
<filter id="filter1_d_952_2079" x="110.262" y="45.5078" width="21.7266" height="21.7285" filterUnits="userSpaceOnUse" color-interpolation-filters="sRGB">
<feFlood flood-opacity="0" result="BackgroundImageFix"/>
<feColorMatrix in="SourceAlpha" type="matrix" values="0 0 0 0 0 0 0 0 0 0 0 0 0 0 0 0 0 0 127 0" result="hardAlpha"/>
<feOffset dy="0.5"/>
<feGaussianBlur stdDeviation="2.5"/>
<feComposite in2="hardAlpha" operator="out"/>
<feColorMatrix type="matrix" values="0 0 0 0 0.947392 0 0 0 0 0.970189 0 0 0 0 1 0 0 0 0.2 0"/>
<feBlend mode="normal" in2="BackgroundImageFix" result="effect1_dropShadow_952_2079"/>
<feBlend mode="normal" in="SourceGraphic" in2="effect1_dropShadow_952_2079" result="shape"/>
</filter>
<linearGradient id="paint0_linear_952_2079" x1="161.146" y1="78.9805" x2="151.329" y2="95.985" gradientUnits="userSpaceOnUse">
<stop offset="0.769302" stop-color="#3388FF" style="stop-color:#3388FF;stop-color:color(display-p3 0.1992 0.5328 1.0000);stop-opacity:1;"/>
<stop offset="1" stop-color="#4D94F8" style="stop-color:#4D94F8;stop-color:color(display-p3 0.3009 0.5809 0.9728);stop-opacity:1;"/>
</linearGradient>
<linearGradient id="paint1_linear_952_2079" x1="99.3126" y1="43.2793" x2="89.495" y2="60.2838" gradientUnits="userSpaceOnUse">
<stop offset="0.769302" stop-color="#3388FF" style="stop-color:#3388FF;stop-color:color(display-p3 0.1992 0.5328 1.0000);stop-opacity:1;"/>
<stop offset="1" stop-color="#4D94F8" style="stop-color:#4D94F8;stop-color:color(display-p3 0.3009 0.5809 0.9728);stop-opacity:1;"/>
</linearGradient>
</defs>
</svg>
