<svg width="190" height="121" viewBox="0 0 190 121" fill="none" xmlns="http://www.w3.org/2000/svg">
<ellipse cx="129.526" cy="60.46" rx="60.4601" ry="60.46" fill="#F04D4D" fill-opacity="0.2" style="fill:#F04D4D;fill:color(display-p3 0.9412 0.3020 0.3020);fill-opacity:0.2;"/>
<rect x="115.495" y="14.0323" width="69.546" height="69.5098" rx="7.5" transform="rotate(30 115.495 14.0323)" fill="#F2A0A0" stroke="#F04D4D" style="fill:#F2A0A0;fill:color(display-p3 0.9495 0.6262 0.6262);fill-opacity:1;stroke:#F04D4D;stroke:color(display-p3 0.9404 0.3018 0.3018);stroke-opacity:1;" stroke-width="5"/>
<path d="M137.244 40.1773C138.119 38.5302 139.888 37.5595 141.748 37.7059C141.889 37.717 142.017 37.7912 142.097 37.9076C143.154 39.4454 143.203 41.4634 142.22 43.0499L129.416 63.729L125.828 61.6577L137.244 40.1773Z" fill="#F04D4D" style="fill:#F04D4D;fill:color(display-p3 0.9404 0.3018 0.3018);fill-opacity:1;"/>
<path d="M136.6 78.0525C137.261 79.7941 136.816 81.762 135.47 83.0489C135.369 83.1456 135.229 83.1914 135.09 83.1736C133.241 82.9363 131.709 81.6209 131.197 79.8287L126.159 62.2109L130.093 60.9179L136.6 78.0525Z" fill="#F04D4D" style="fill:#F04D4D;fill:color(display-p3 0.9404 0.3018 0.3018);fill-opacity:1;"/>
<ellipse cx="128.233" cy="61.5163" rx="5.94862" ry="5.94599" transform="rotate(30 128.233 61.5163)" fill="#1D1E22" style="fill:#1D1E22;fill:color(display-p3 0.1137 0.1176 0.1333);fill-opacity:1;"/>
<path d="M136.638 23.6004C137.763 21.6519 138.325 20.6777 139.216 20.2813C139.503 20.1532 139.809 20.0712 140.122 20.0383C141.092 19.9364 142.066 20.4989 144.014 21.6238L154.891 27.9031C156.839 29.0281 157.813 29.5905 158.21 30.481C158.338 30.7686 158.42 31.0746 158.453 31.3876C158.554 32.3571 157.992 33.3313 156.867 35.2797L155.799 37.1294L135.57 25.4501L136.638 23.6004Z" fill="#F04D4D" style="fill:#F04D4D;fill:color(display-p3 0.9404 0.3018 0.3018);fill-opacity:1;"/>
<ellipse cx="60.4738" cy="60.46" rx="60.4601" ry="60.46" fill="#F04D4D" style="fill:#F04D4D;fill:color(display-p3 0.9404 0.3018 0.3018);fill-opacity:1;"/>
<rect width="8.88958" height="69.5193" rx="4.44479" transform="matrix(0.707107 -0.707106 0.707107 0.707106 32.752 39.0254)" fill="white" stroke="white" style="fill:white;fill-opacity:1;stroke:white;stroke-opacity:1;"/>
<rect width="8.88958" height="69.5193" rx="4.44479" transform="matrix(0.707107 0.707106 -0.707107 0.707106 81.9102 32.7344)" fill="white" stroke="white" style="fill:white;fill-opacity:1;stroke:white;stroke-opacity:1;"/>
</svg>
