<svg width="42" height="42" viewBox="0 0 42 42" fill="none" xmlns="http://www.w3.org/2000/svg">
<path d="M0.721198 19.1699L0.845703 19.3667C0.79959 19.3021 0.758088 19.236 0.721198 19.1699Z" fill="#FFC632" style="fill:#FFC632;fill:color(display-p3 1.0000 0.7765 0.1961);fill-opacity:1;"/>
<path d="M32.4141 33.2461C32.3295 33.2707 32.2419 33.2891 32.1512 33.3045L32.4141 33.2461Z" fill="#FFC632" style="fill:#FFC632;fill:color(display-p3 1.0000 0.7765 0.1961);fill-opacity:1;"/>
<path d="M10.0684 9.57771L33.248 32.7573C33.0282 32.991 32.7485 33.1524 32.4134 33.2461L32.1506 33.3045L7.58138 38.7766C5.46478 39.2485 3.57721 37.3594 4.04756 35.2428L9.51968 10.6737L9.57809 10.4108C9.67339 10.0773 9.83325 9.79598 10.0654 9.57617H10.0669L10.0684 9.57771Z" fill="#F27F1A" style="fill:#F27F1A;fill:color(display-p3 0.9501 0.4980 0.1025);fill-opacity:1;"/>
<path d="M17.9971 24.8293C11.5957 18.4279 8.03025 11.6147 10.0334 9.61158C12.0365 7.60845 18.8497 11.1739 25.2511 17.5753C31.6525 23.9767 35.2179 30.7899 33.2148 32.793C31.2117 34.7961 24.3985 31.2307 17.9971 24.8293Z" fill="#FFCC65" style="fill:#FFCC65;fill:color(display-p3 1.0000 0.7991 0.3973);fill-opacity:1;"/>
<path d="M33.1269 6.1249L35.2441 8.24219L31.8682 11.6181L29.7509 9.50082L33.1269 6.1249Z" fill="#08A1E8" style="fill:#08A1E8;fill:color(display-p3 0.0314 0.6314 0.9098);fill-opacity:1;"/>
<path d="M19.6998 10.8154L22.293 12.3125L19.9058 16.4471L17.3127 14.95L19.6998 10.8154Z" fill="#FF7530" style="fill:#FF7530;fill:color(display-p3 1.0000 0.4601 0.1901);fill-opacity:1;"/>
<path d="M16.3475 3.55803L19.2832 2.96875L20.2228 7.64965L17.2871 8.23893L16.3475 3.55803Z" fill="#B28EE7" style="fill:#B28EE7;fill:color(display-p3 0.6962 0.5561 0.9063);fill-opacity:1;"/>
<path d="M33.5483 14.8759L34.1621 17.8066L29.4892 18.7854L28.8754 15.8547L33.5483 14.8759Z" fill="#9BD000" style="fill:#9BD000;fill:color(display-p3 0.6096 0.8139 0.0000);fill-opacity:1;"/>
<path d="M38.7595 22.9996L38.998 25.9844L34.239 26.3648L34.0004 23.38L38.7595 22.9996Z" fill="#B28EE7" style="fill:#B28EE7;fill:color(display-p3 0.6962 0.5561 0.9063);fill-opacity:1;"/>
<path d="M26.4082 20.9992L27.5586 23.7637L23.1508 25.598L22.0003 22.8335L26.4082 20.9992Z" fill="#FFFB08" style="fill:#FFFB08;fill:color(display-p3 1.0000 0.9839 0.0326);fill-opacity:1;"/>
</svg>
