<svg width="40" height="20" viewBox="0 0 40 20" fill="none" xmlns="http://www.w3.org/2000/svg">
<rect x="20" width="20" height="20" rx="2" fill="#F04D4D" style="fill:#F04D4D;fill:color(display-p3 0.9404 0.3018 0.3018);fill-opacity:1;"/>
<rect y="0.00195312" width="20" height="20" rx="2" fill="#3388FF" style="fill:#3388FF;fill:color(display-p3 0.1992 0.5328 1.0000);fill-opacity:1;"/>
<path d="M6.1875 15.6504C5.45312 15.6504 4.99219 15.2207 4.99219 14.541C4.99219 14.3457 5.04688 14.0801 5.14844 13.791L8.22656 5.4082C8.55469 4.49414 9.10938 4.07227 10 4.07227C10.9219 4.07227 11.4688 4.47852 11.8047 5.40039L14.8984 13.791C15.0078 14.0957 15.0469 14.3066 15.0469 14.541C15.0469 15.1895 14.5547 15.6504 13.8672 15.6504C13.2031 15.6504 12.8516 15.3457 12.6406 14.6113L12.0469 12.8301H7.97656L7.38281 14.5879C7.16406 15.3379 6.8125 15.6504 6.1875 15.6504ZM8.49219 11.002H11.5L10.0078 6.38477H9.95312L8.49219 11.002Z" fill="white" style="fill:white;fill-opacity:1;"/>
<path d="M27.1172 15.502C26.375 15.502 25.9375 15.0488 25.9375 14.2676V5.45508C25.9375 4.68164 26.375 4.22852 27.1172 4.22852H30.8438C32.9609 4.22852 34.2891 5.31445 34.2891 7.04102C34.2891 8.27539 33.3672 9.30664 32.1719 9.48633V9.54883C33.7031 9.66602 34.8281 10.7832 34.8281 12.2754C34.8281 14.2598 33.3359 15.502 30.9297 15.502H27.1172ZM28.2969 8.91602H29.9922C31.25 8.91602 31.9688 8.36133 31.9688 7.4082C31.9688 6.50195 31.3359 5.98633 30.2344 5.98633H28.2969V8.91602ZM28.2969 13.7441H30.3281C31.6875 13.7441 32.4219 13.166 32.4219 12.0879C32.4219 11.0332 31.6641 10.4707 30.2734 10.4707H28.2969V13.7441Z" fill="white" style="fill:white;fill-opacity:1;"/>
</svg>
