<svg width="116" height="30" viewBox="0 0 116 30" fill="none" xmlns="http://www.w3.org/2000/svg">
<g clip-path="url(#clip0_438_4479)">
<path d="M20.006 22.6362C19.5791 23.185 19.0518 23.662 18.429 24.0671C17.8013 24.4723 17.1333 24.8108 16.4151 25.0826C15.697 25.3493 14.9637 25.5545 14.2104 25.6878C13.4571 25.8212 12.7389 25.8878 12.0609 25.8878C10.7451 25.8878 9.53472 25.6468 8.42984 25.1647C7.32495 24.6826 6.37074 24.0159 5.56718 23.1696C4.76363 22.3234 4.13585 21.3233 3.68386 20.1744C3.23186 19.0256 3.00586 17.7896 3.00586 16.4664C3.00586 15.456 3.12137 14.4662 3.34737 13.502C3.57337 12.5327 3.89981 11.6197 4.32168 10.7632C4.74354 9.90675 5.26083 9.11693 5.86851 8.40404C6.4762 7.68602 7.16424 7.06544 7.93766 6.54744C8.70606 6.02944 9.54979 5.62427 10.4689 5.33706C11.3829 5.04985 12.3622 4.90625 13.4068 4.90625C13.7986 4.90625 14.2154 4.92164 14.6574 4.95241C15.0993 4.98318 15.5413 5.0396 15.9832 5.12166C16.4252 5.19859 16.8521 5.31142 17.2689 5.44989C17.6858 5.58837 18.0674 5.76275 18.414 5.96277L18.0323 11.271C17.525 11.0761 17.0027 10.9428 16.4603 10.8761C15.9179 10.8043 15.3906 10.7735 14.8733 10.7735C14.1501 10.7735 13.4721 10.8863 12.8393 11.112C12.2065 11.3377 11.6591 11.6659 11.192 12.0916C10.725 12.5173 10.3533 13.0353 10.0821 13.6456C9.81094 14.2559 9.67534 14.9483 9.67534 15.7176C9.67534 16.1997 9.74063 16.6664 9.86619 17.1126C9.99174 17.5639 10.1876 17.9588 10.4437 18.3076C10.6999 18.6563 11.0263 18.9333 11.408 19.1487C11.7947 19.3641 12.2417 19.4667 12.7489 19.4667C13.0955 19.4667 13.452 19.4205 13.8187 19.3282C14.1853 19.2359 14.5017 19.0769 14.7628 18.8564L14.8181 17.7742L11.5536 17.7178L11.7194 13.5481C13.0704 13.502 14.4213 13.461 15.7723 13.4302C17.1233 13.3994 18.4843 13.3533 19.8554 13.2968L20.0161 22.6311L20.006 22.6362Z" fill="#F7F8FA" style="fill:#F7F8FA;fill:color(display-p3 0.9686 0.9725 0.9804);fill-opacity:1;"/>
<path d="M38.1857 15.662C38.1857 16.5031 38.0903 17.3186 37.8994 18.0981C37.7086 18.8828 37.4324 19.6162 37.0758 20.2984C36.7192 20.9856 36.2823 21.6113 35.77 22.1806C35.2578 22.7499 34.6802 23.2371 34.0424 23.6474C33.4046 24.0526 32.7065 24.3706 31.9531 24.6014C31.1998 24.827 30.4013 24.9399 29.5576 24.9399C28.7138 24.9399 27.9655 24.8322 27.2222 24.6219C26.484 24.4065 25.7909 24.109 25.1481 23.7243C24.5052 23.3397 23.9226 22.8781 23.4003 22.3345C22.878 21.7908 22.4361 21.1908 22.0694 20.5292C21.7028 19.8675 21.4166 19.1547 21.2106 18.3956C21.0047 17.6366 20.9043 16.8467 20.9043 16.021C20.9043 15.1953 20.9997 14.426 21.1906 13.6515C21.3814 12.8771 21.6526 12.1488 22.0142 11.4616C22.3708 10.7743 22.8077 10.1486 23.315 9.57421C23.8222 8.99979 24.3897 8.50744 25.0225 8.08688C25.6503 7.67146 26.3333 7.34835 27.0716 7.11242C27.8098 6.8765 28.5832 6.76367 29.3968 6.76367C30.7127 6.76367 31.913 6.97395 32.9978 7.38938C34.0826 7.8048 35.0066 8.39973 35.775 9.17417C36.5434 9.94861 37.1361 10.882 37.5579 11.9796C37.9798 13.0771 38.1907 14.3029 38.1907 15.6569L38.1857 15.662ZM32.144 16.0261C32.144 15.6261 32.0887 15.2414 31.9732 14.867C31.8577 14.4927 31.697 14.1593 31.476 13.8669C31.2601 13.5746 30.9889 13.3387 30.6675 13.1592C30.346 12.9797 29.9744 12.8874 29.5576 12.8874C29.1407 12.8874 28.749 12.9643 28.4125 13.1233C28.076 13.2823 27.7897 13.4977 27.5487 13.7695C27.3076 14.0413 27.1268 14.3644 26.9962 14.7286C26.8707 15.0927 26.8054 15.4825 26.8054 15.8877C26.8054 16.2928 26.8606 16.6672 26.9711 17.057C27.0816 17.4468 27.2423 17.7955 27.4583 18.1135C27.6742 18.4315 27.9454 18.6828 28.2668 18.8777C28.5883 19.0726 28.9649 19.17 29.3868 19.17C29.8087 19.17 30.1954 19.0829 30.5369 18.9136C30.8784 18.7444 31.1647 18.5084 31.4007 18.2212C31.6367 17.9289 31.8175 17.5955 31.9431 17.216C32.0687 16.8365 32.1339 16.4416 32.1339 16.0364L32.144 16.0261Z" fill="#F7F8FA" style="fill:#F7F8FA;fill:color(display-p3 0.9686 0.9725 0.9804);fill-opacity:1;"/>
<path d="M53.5128 5.60352L53.3772 11.4964L49.3242 11.6657L48.2897 24.8362L42.5493 25.1439L42.5744 11.9734L38.5215 12.1939L38.6872 5.63429L53.5178 5.60864L53.5128 5.60352Z" fill="#F7F8FA" style="fill:#F7F8FA;fill:color(display-p3 0.9686 0.9725 0.9804);fill-opacity:1;"/>
<path d="M67.4651 5.93799L66.7017 11.8001C66.4405 11.7283 66.1744 11.677 65.9132 11.6463C65.6521 11.6206 65.3859 11.6052 65.1247 11.6052C64.4517 11.6052 63.8139 11.6975 63.2062 11.877C62.5986 12.0566 62.0612 12.3335 61.5941 12.7028C61.127 13.072 60.7554 13.5336 60.4792 14.0927C60.203 14.6466 60.0623 15.303 60.0623 16.0518C60.0623 16.5339 60.1377 16.9494 60.2883 17.3032C60.439 17.6571 60.6499 17.9443 60.9211 18.1802C61.1923 18.411 61.5138 18.5854 61.8854 18.6931C62.257 18.8008 62.6638 18.8624 63.1108 18.8624C63.4473 18.8624 63.7938 18.8265 64.1605 18.7495C64.5221 18.6777 64.8837 18.5803 65.2352 18.4572C65.5868 18.3392 65.9333 18.2008 66.2698 18.0418C66.6063 17.8828 66.9126 17.7238 67.1939 17.5545L66.6515 24.0834C66.2999 24.268 65.9132 24.4322 65.5014 24.5758C65.0896 24.7194 64.6627 24.8425 64.2308 24.9502C63.7938 25.0579 63.3619 25.1399 62.925 25.1912C62.4881 25.2476 62.0712 25.2733 61.6745 25.2733C60.5244 25.2733 59.4496 25.0579 58.4502 24.6219C57.4508 24.186 56.587 23.591 55.8537 22.832C55.1205 22.0729 54.5429 21.1754 54.1211 20.1445C53.6992 19.1137 53.4883 18.0007 53.4883 16.8057C53.4883 15.221 53.7093 13.7285 54.1562 12.3232C54.5982 10.918 55.2561 9.69222 56.1149 8.6357C56.9737 7.57918 58.0434 6.74833 59.3191 6.13288C60.5947 5.52257 62.0612 5.21484 63.7185 5.21484C64.3463 5.21484 64.9841 5.26613 65.642 5.36871C66.2999 5.47128 66.9076 5.66104 67.4701 5.93799H67.4651Z" fill="#F7F8FA" style="fill:#F7F8FA;fill:color(display-p3 0.9686 0.9725 0.9804);fill-opacity:1;"/>
<path d="M84.4681 25.4725L77.668 25.8058L77.6128 19.3898H74.4839L74.2931 25.4725H68.2012L68.7185 5.93716L75.1921 6.24489L74.7853 16.2202H77.8036L77.8287 5.49609L84.0312 5.66534L84.4681 25.4776V25.4725Z" fill="#F7F8FA" style="fill:#F7F8FA;fill:color(display-p3 0.9686 0.9725 0.9804);fill-opacity:1;"/>
<path d="M103.792 24.2774L97.0419 25.1647L96.2232 22.0259H93.1195L92.4415 25.1647L85.5059 24.4723L90.9198 5.96791L98.4832 5.57812L103.787 24.2774H103.792ZM95.7411 17.7742L94.7065 12.9378L93.7021 17.7742H95.7411Z" fill="#F7F8FA" style="fill:#F7F8FA;fill:color(display-p3 0.9686 0.9725 0.9804);fill-opacity:1;"/>
<path d="M105.302 9.33456C105.579 9.60638 105.9 9.81666 106.262 9.97565C106.623 10.1346 107.01 10.2064 107.422 10.2013C107.839 10.1911 108.225 10.1039 108.582 9.92949C108.938 9.75512 109.25 9.52945 109.516 9.24737C109.782 8.96529 109.988 8.63193 110.139 8.2524C110.289 7.87288 110.36 7.47284 110.35 7.05741C110.34 6.63173 110.254 6.23682 110.094 5.87268C109.928 5.50854 109.712 5.19056 109.436 4.91874C109.159 4.64691 108.843 4.43664 108.476 4.28277C108.11 4.12891 107.723 4.05711 107.306 4.06737C106.899 4.07763 106.518 4.16481 106.156 4.32893C105.8 4.49818 105.488 4.71872 105.222 5.00079C104.956 5.28287 104.745 5.61111 104.594 5.98038C104.439 6.34965 104.368 6.74969 104.373 7.17537C104.383 7.5908 104.469 7.98571 104.639 8.36011C104.81 8.7345 105.031 9.05761 105.307 9.32943L105.302 9.33456Z" fill="#BFFF00" style="fill:#BFFF00;fill:color(display-p3 0.7490 1.0000 0.0000);fill-opacity:1;"/>
<path d="M105.322 11.4256L104.945 25.9347L111.469 25.2577L109.957 11.3281L105.322 11.4256Z" fill="#BFFF00" style="fill:#BFFF00;fill:color(display-p3 0.7490 1.0000 0.0000);fill-opacity:1;"/>
</g>
<defs>
<clipPath id="clip0_438_4479">
<rect width="108.47" height="21.8689" fill="white" style="fill:white;fill-opacity:1;" transform="translate(3 4.06641)"/>
</clipPath>
</defs>
</svg>
