<svg width="57" height="13" viewBox="0 0 57 13" fill="none" xmlns="http://www.w3.org/2000/svg">
<g clip-path="url(#clip0_718_3696)">
<path d="M9.24436 10.5149C9.02355 10.8035 8.75079 11.0543 8.42868 11.2674C8.10397 11.4805 7.75848 11.6585 7.38701 11.8014C7.01554 11.9416 6.63627 12.0495 6.24662 12.1196C5.85697 12.1898 5.4855 12.2248 5.13481 12.2248C4.45421 12.2248 3.82817 12.0981 3.25668 11.8446C2.68519 11.591 2.19162 11.2404 1.77599 10.7954C1.36036 10.3504 1.03565 9.8245 0.80186 9.22037C0.568068 8.61624 0.451172 7.96627 0.451172 7.27044C0.451172 6.73913 0.510919 6.21861 0.627815 5.71158C0.744711 5.20184 0.913561 4.72178 1.13177 4.27138C1.34997 3.82098 1.61753 3.40564 1.93186 3.03076C2.24618 2.65318 2.60206 2.32684 3.0021 2.05445C3.39955 1.78205 3.83596 1.56899 4.31134 1.41795C4.78412 1.26692 5.29067 1.19141 5.83099 1.19141C6.03361 1.19141 6.24922 1.1995 6.47781 1.21568C6.70641 1.23186 6.93501 1.26153 7.16361 1.30468C7.3922 1.34514 7.61301 1.40447 7.82861 1.47729C8.04422 1.55011 8.24165 1.64181 8.42089 1.74699L8.22346 4.53838C7.9611 4.4359 7.69094 4.36577 7.41039 4.33071C7.12983 4.29295 6.85708 4.27677 6.58952 4.27677C6.21545 4.27677 5.86476 4.33611 5.53745 4.45477C5.21014 4.57344 4.92699 4.74605 4.68541 4.9699C4.44382 5.19375 4.25159 5.46615 4.11132 5.78709C3.97104 6.10804 3.90091 6.47213 3.90091 6.87668C3.90091 7.1302 3.93468 7.37563 3.99962 7.61026C4.06456 7.8476 4.16587 8.05527 4.29835 8.23867C4.43083 8.42206 4.59968 8.5677 4.79711 8.68097C4.99713 8.79425 5.22833 8.84819 5.49069 8.84819C5.66993 8.84819 5.85437 8.82391 6.044 8.77537C6.23363 8.72682 6.39729 8.64321 6.53237 8.52724L6.56094 7.95818L4.87244 7.92851L4.95817 5.73585C5.65694 5.71158 6.35572 5.69 7.0545 5.67382C7.75328 5.65764 8.45726 5.63336 9.16643 5.6037L9.24955 10.5122L9.24436 10.5149Z" fill="#6D8DC4" style="fill:#6D8DC4;fill:color(display-p3 0.4278 0.5513 0.7687);fill-opacity:1;"/>
<path d="M18.6476 6.84922C18.6476 7.29152 18.5983 7.72035 18.4996 8.13029C18.4009 8.54293 18.258 8.9286 18.0735 9.2873C17.8891 9.6487 17.6631 9.97773 17.3981 10.2771C17.1332 10.5765 16.8345 10.8327 16.5045 11.0484C16.1746 11.2615 15.8136 11.4287 15.4239 11.5501C15.0343 11.6688 14.6212 11.7281 14.1848 11.7281C13.7484 11.7281 13.3613 11.6714 12.9769 11.5609C12.595 11.4476 12.2365 11.2912 11.904 11.0889C11.5715 10.8866 11.2702 10.6439 11 10.358C10.7299 10.0721 10.5013 9.75658 10.3116 9.40867C10.122 9.06075 9.97395 8.68587 9.86744 8.28672C9.76094 7.88756 9.70898 7.47222 9.70898 7.038C9.70898 6.60379 9.75834 6.19924 9.85705 5.79199C9.95576 5.38474 10.096 5.00177 10.2831 4.64037C10.4675 4.27898 10.6935 3.94994 10.9559 3.64788C11.2182 3.34581 11.5118 3.0869 11.8391 2.86575C12.1638 2.64729 12.5171 2.47738 12.8989 2.35332C13.2808 2.22926 13.6809 2.16992 14.1017 2.16992C14.7823 2.16992 15.4031 2.2805 15.9642 2.49896C16.5253 2.71741 17.0033 3.03026 17.4007 3.43751C17.7982 3.84476 18.1047 4.33561 18.3229 4.91277C18.5411 5.48993 18.6502 6.13451 18.6502 6.84652L18.6476 6.84922ZM15.5226 7.0407C15.5226 6.83034 15.494 6.62806 15.4343 6.43118C15.3745 6.2343 15.2914 6.05899 15.1771 5.90527C15.0654 5.75154 14.9251 5.62747 14.7589 5.53308C14.5926 5.43868 14.4004 5.39014 14.1848 5.39014C13.9692 5.39014 13.7666 5.43059 13.5925 5.5142C13.4185 5.59781 13.2704 5.71108 13.1457 5.85402C13.021 5.99696 12.9275 6.16687 12.86 6.35836C12.795 6.54985 12.7613 6.75482 12.7613 6.96788C12.7613 7.18095 12.7898 7.37783 12.847 7.5828C12.9041 7.78777 12.9873 7.97117 13.099 8.13838C13.2107 8.30559 13.3509 8.43775 13.5172 8.54023C13.6835 8.64272 13.8783 8.69396 14.0965 8.69396C14.3147 8.69396 14.5147 8.64811 14.6914 8.55911C14.868 8.47011 15.0161 8.34605 15.1382 8.19502C15.2602 8.04129 15.3538 7.86598 15.4187 7.66641C15.4837 7.46683 15.5174 7.25916 15.5174 7.0461L15.5226 7.0407Z" fill="#6D8DC4" style="fill:#6D8DC4;fill:color(display-p3 0.4278 0.5513 0.7687);fill-opacity:1;"/>
<path d="M26.5744 1.55859L26.5043 4.65745L24.4079 4.74645L23.8728 11.6723L20.9037 11.8342L20.9166 4.90827L18.8203 5.02424L18.906 1.57478L26.577 1.56129L26.5744 1.55859Z" fill="#6D8DC4" style="fill:#6D8DC4;fill:color(display-p3 0.4278 0.5513 0.7687);fill-opacity:1;"/>
<path d="M33.7919 1.73379L33.397 4.81646C33.2619 4.7787 33.1243 4.75173 32.9892 4.73555C32.8541 4.72207 32.7164 4.71398 32.5813 4.71398C32.2333 4.71398 31.9034 4.76252 31.589 4.85692C31.2747 4.95131 30.9968 5.09695 30.7552 5.29113C30.5136 5.48532 30.3214 5.72805 30.1785 6.02202C30.0356 6.3133 29.9629 6.65851 29.9629 7.05227C29.9629 7.30579 30.0018 7.52425 30.0798 7.71034C30.1577 7.89644 30.2668 8.04747 30.4071 8.17153C30.5474 8.29289 30.7136 8.38459 30.9058 8.44123C31.0981 8.49787 31.3085 8.53023 31.5397 8.53023C31.7137 8.53023 31.893 8.51135 32.0826 8.4709C32.2696 8.43314 32.4567 8.3819 32.6385 8.31717C32.8203 8.25514 32.9996 8.18232 33.1736 8.09871C33.3477 8.0151 33.5061 7.9315 33.6516 7.84249L33.371 11.2758C33.1892 11.3729 32.9892 11.4592 32.7762 11.5347C32.5632 11.6102 32.3424 11.6749 32.119 11.7316C31.893 11.7882 31.6696 11.8314 31.4436 11.8583C31.2176 11.888 31.002 11.9015 30.7967 11.9015C30.2019 11.9015 29.646 11.7882 29.129 11.559C28.6121 11.3297 28.1653 11.0169 27.786 10.6177C27.4067 10.2186 27.108 9.74658 26.8898 9.20448C26.6716 8.66238 26.5625 8.07713 26.5625 7.44873C26.5625 6.61536 26.6768 5.83053 26.908 5.09156C27.1366 4.35258 27.4769 3.708 27.9211 3.15241C28.3653 2.59683 28.9186 2.15992 29.5784 1.83628C30.2382 1.51534 30.9968 1.35352 31.854 1.35352C32.1787 1.35352 32.5086 1.38049 32.8489 1.43443C33.1892 1.48837 33.5035 1.58815 33.7945 1.73379H33.7919Z" fill="#6D8DC4" style="fill:#6D8DC4;fill:color(display-p3 0.4278 0.5513 0.7687);fill-opacity:1;"/>
<path d="M42.5858 12.0068L39.0685 12.1821L39.0399 8.80812H37.4216L37.3229 12.0068H34.1719L34.4394 1.7339L37.7879 1.89571L37.5774 7.14138H39.1387L39.1516 1.50195L42.3598 1.59095L42.5858 12.0095V12.0068Z" fill="#6D8DC4" style="fill:#6D8DC4;fill:color(display-p3 0.4278 0.5513 0.7687);fill-opacity:1;"/>
<path d="M52.5812 11.3782L49.0899 11.8448L48.6665 10.1942H47.0611L46.7105 11.8448L43.123 11.4807L45.9234 1.74989L49.8355 1.54492L52.5786 11.3782H52.5812ZM48.4171 7.95838L47.882 5.41512L47.3625 7.95838H48.4171Z" fill="#6D8DC4" style="fill:#6D8DC4;fill:color(display-p3 0.4278 0.5513 0.7687);fill-opacity:1;"/>
<path d="M53.3616 3.52032C53.5044 3.66326 53.6707 3.77384 53.8577 3.85745C54.0448 3.94106 54.2448 3.97881 54.4578 3.97612C54.6734 3.97072 54.8734 3.92487 55.0579 3.83318C55.2423 3.74148 55.4033 3.62281 55.541 3.47447C55.6787 3.32614 55.7852 3.15083 55.8631 2.95126C55.9411 2.75168 55.9774 2.54131 55.9722 2.32286C55.967 2.09901 55.9229 1.89134 55.8398 1.69985C55.754 1.50836 55.6423 1.34115 55.4995 1.19821C55.3566 1.05527 55.1929 0.94469 55.0033 0.86378C54.8137 0.78287 54.6136 0.745112 54.398 0.750506C54.1876 0.7559 53.9902 0.801749 53.8032 0.888053C53.6187 0.977054 53.4577 1.09302 53.32 1.24136C53.1823 1.38969 53.0732 1.5623 52.9953 1.75649C52.9148 1.95067 52.8784 2.16104 52.881 2.38489C52.8862 2.60334 52.9303 2.81101 53.0187 3.00789C53.107 3.20477 53.2213 3.37469 53.3642 3.51763L53.3616 3.52032Z" fill="#6D8DC4" style="fill:#6D8DC4;fill:color(display-p3 0.4278 0.5513 0.7687);fill-opacity:1;"/>
<path d="M53.3726 4.62156L53.1777 12.2514L56.5521 11.8954L55.7702 4.57031L53.3726 4.62156Z" fill="#6D8DC4" style="fill:#6D8DC4;fill:color(display-p3 0.4278 0.5513 0.7687);fill-opacity:1;"/>
</g>
<defs>
<clipPath id="clip0_718_3696">
<rect width="56.1049" height="11.5" fill="white" style="fill:white;fill-opacity:1;" transform="translate(0.447266 0.75)"/>
</clipPath>
</defs>
</svg>
