<svg width="20" height="21" viewBox="0 0 20 21" fill="none" xmlns="http://www.w3.org/2000/svg">
<path fill-rule="evenodd" clip-rule="evenodd" d="M4.16732 2.60352C4.05226 2.60352 3.95898 2.69679 3.95898 2.81185V17.8118C3.95898 17.9269 4.05225 18.0202 4.16732 18.0202H15.834C15.9491 18.0202 16.0423 17.9269 16.0423 17.8118V6.40407L12.2418 2.60352H4.16732ZM2.70898 2.81185C2.70898 2.00643 3.3619 1.35352 4.16732 1.35352H12.5007C12.6664 1.35352 12.8254 1.41936 12.9426 1.53657L17.1093 5.70324C17.2265 5.82045 17.2923 5.97942 17.2923 6.14518V17.8118C17.2923 18.6173 16.6394 19.2702 15.834 19.2702H4.16732C3.36191 19.2702 2.70898 18.6173 2.70898 17.8118V2.81185Z" fill="#E3E5E9" style="fill:#E3E5E9;fill:color(display-p3 0.8902 0.8980 0.9137);fill-opacity:1;"/>
<path fill-rule="evenodd" clip-rule="evenodd" d="M6.04232 8.64518C6.04232 8.3 6.32214 8.02018 6.66732 8.02018H13.334C13.6792 8.02018 13.959 8.3 13.959 8.64518C13.959 8.99036 13.6792 9.27018 13.334 9.27018H6.66732C6.32214 9.27018 6.04232 8.99036 6.04232 8.64518Z" fill="#E3E5E9" style="fill:#E3E5E9;fill:color(display-p3 0.8902 0.8980 0.9137);fill-opacity:1;"/>
<path fill-rule="evenodd" clip-rule="evenodd" d="M6.04232 11.9785C6.04232 11.6333 6.32214 11.3535 6.66732 11.3535H13.334C13.6792 11.3535 13.959 11.6333 13.959 11.9785C13.959 12.3237 13.6792 12.6035 13.334 12.6035H6.66732C6.32214 12.6035 6.04232 12.3237 6.04232 11.9785Z" fill="#E3E5E9" style="fill:#E3E5E9;fill:color(display-p3 0.8902 0.8980 0.9137);fill-opacity:1;"/>
</svg>
