<svg width="22" height="22" viewBox="0 0 22 22" fill="none" xmlns="http://www.w3.org/2000/svg">
<path fill-rule="evenodd" clip-rule="evenodd" d="M2.75 6.76923C2.75 4.54947 4.54947 2.75 6.76923 2.75H15.2308C17.4505 2.75 19.25 4.54947 19.25 6.76923V15.2308C19.25 17.4505 17.4505 19.25 15.2308 19.25H6.76923C4.54947 19.25 2.75 17.4505 2.75 15.2308V6.76923ZM6.76923 4.01923C5.25045 4.01923 4.01923 5.25045 4.01923 6.76923V15.2308C4.01923 16.7496 5.25045 17.9808 6.76923 17.9808H15.2308C16.7496 17.9808 17.9808 16.7496 17.9808 15.2308V6.76923C17.9808 5.25045 16.7496 4.01923 15.2308 4.01923H6.76923Z" fill="black" style="fill:black;fill-opacity:1;"/>
<path fill-rule="evenodd" clip-rule="evenodd" d="M6.98077 11C6.98077 8.78023 8.78023 6.98077 11 6.98077C13.2198 6.98077 15.0192 8.78023 15.0192 11C15.0192 13.2198 13.2198 15.0192 11 15.0192C8.78023 15.0192 6.98077 13.2198 6.98077 11ZM11 8.25C9.48121 8.25 8.25 9.48121 8.25 11C8.25 12.5188 9.48121 13.75 11 13.75C12.5188 13.75 13.75 12.5188 13.75 11C13.75 9.48121 12.5188 8.25 11 8.25Z" fill="black" style="fill:black;fill-opacity:1;"/>
<path d="M15.7253 7.51397C16.1926 7.51397 16.5714 7.13514 16.5714 6.66781C16.5714 6.20048 16.1926 5.82166 15.7253 5.82166C15.258 5.82166 14.8791 6.20048 14.8791 6.66781C14.8791 7.13514 15.258 7.51397 15.7253 7.51397Z" fill="black" style="fill:black;fill-opacity:1;"/>
<path d="M2.75 6.76923H2.9075C2.9075 4.63645 4.63645 2.9075 6.76923 2.9075V2.75V2.5925C4.46249 2.5925 2.5925 4.46249 2.5925 6.76923H2.75ZM6.76923 2.75V2.9075H15.2308V2.75V2.5925H6.76923V2.75ZM15.2308 2.75V2.9075C17.3636 2.9075 19.0925 4.63646 19.0925 6.76923H19.25H19.4075C19.4075 4.46249 17.5375 2.5925 15.2308 2.5925V2.75ZM19.25 6.76923H19.0925V15.2308H19.25H19.4075V6.76923H19.25ZM19.25 15.2308H19.0925C19.0925 17.3636 17.3636 19.0925 15.2308 19.0925V19.25V19.4075C17.5375 19.4075 19.4075 17.5375 19.4075 15.2308H19.25ZM15.2308 19.25V19.0925H6.76923V19.25V19.4075H15.2308V19.25ZM6.76923 19.25V19.0925C4.63646 19.0925 2.9075 17.3636 2.9075 15.2308H2.75H2.5925C2.5925 17.5375 4.46249 19.4075 6.76923 19.4075V19.25ZM2.75 15.2308H2.9075V6.76923H2.75H2.5925V15.2308H2.75ZM6.76923 4.01923V3.86173C5.16346 3.86173 3.86173 5.16346 3.86173 6.76923H4.01923H4.17673C4.17673 5.33743 5.33743 4.17673 6.76923 4.17673V4.01923ZM4.01923 6.76923H3.86173V15.2308H4.01923H4.17673V6.76923H4.01923ZM4.01923 15.2308H3.86173C3.86173 16.8365 5.16346 18.1383 6.76923 18.1383V17.9808V17.8233C5.33743 17.8233 4.17673 16.6626 4.17673 15.2308H4.01923ZM6.76923 17.9808V18.1383H15.2308V17.9808V17.8233H6.76923V17.9808ZM15.2308 17.9808V18.1383C16.8365 18.1383 18.1383 16.8365 18.1383 15.2308H17.9808H17.8233C17.8233 16.6626 16.6626 17.8233 15.2308 17.8233V17.9808ZM17.9808 15.2308H18.1383V6.76923H17.9808H17.8233V15.2308H17.9808ZM17.9808 6.76923H18.1383C18.1383 5.16346 16.8365 3.86173 15.2308 3.86173V4.01923V4.17673C16.6626 4.17673 17.8233 5.33743 17.8233 6.76923H17.9808ZM15.2308 4.01923V3.86173H6.76923V4.01923V4.17673H15.2308V4.01923ZM6.98077 11H7.13827C7.13827 8.86722 8.86722 7.13827 11 7.13827V6.98077V6.82327C8.69325 6.82327 6.82327 8.69325 6.82327 11H6.98077ZM11 6.98077V7.13827C13.1328 7.13827 14.8617 8.86722 14.8617 11H15.0192H15.1767C15.1767 8.69325 13.3068 6.82327 11 6.82327V6.98077ZM15.0192 11H14.8617C14.8617 13.1328 13.1328 14.8617 11 14.8617V15.0192V15.1767C13.3068 15.1767 15.1767 13.3068 15.1767 11H15.0192ZM11 15.0192V14.8617C8.86722 14.8617 7.13827 13.1328 7.13827 11H6.98077H6.82327C6.82327 13.3068 8.69325 15.1767 11 15.1767V15.0192ZM11 8.25V8.0925C9.39422 8.0925 8.0925 9.39422 8.0925 11H8.25H8.4075C8.4075 9.56819 9.56819 8.4075 11 8.4075V8.25ZM8.25 11H8.0925C8.0925 12.6058 9.39422 13.9075 11 13.9075V13.75V13.5925C9.56819 13.5925 8.4075 12.4318 8.4075 11H8.25ZM11 13.75V13.9075C12.6058 13.9075 13.9075 12.6058 13.9075 11H13.75H13.5925C13.5925 12.4318 12.4318 13.5925 11 13.5925V13.75ZM13.75 11H13.9075C13.9075 9.39422 12.6058 8.0925 11 8.0925V8.25V8.4075C12.4318 8.4075 13.5925 9.56819 13.5925 11H13.75ZM15.7253 7.51397V7.67146C16.2796 7.67146 16.7289 7.22213 16.7289 6.66781H16.5714H16.4139C16.4139 7.04816 16.1056 7.35647 15.7253 7.35647V7.51397ZM16.5714 6.66781H16.7289C16.7289 6.1135 16.2796 5.66416 15.7253 5.66416V5.82166V5.97916C16.1056 5.97916 16.4139 6.28747 16.4139 6.66781H16.5714ZM15.7253 5.82166V5.66416C15.171 5.66416 14.7216 6.1135 14.7216 6.66781H14.8791H15.0366C15.0366 6.28747 15.3449 5.97916 15.7253 5.97916V5.82166ZM14.8791 6.66781H14.7216C14.7216 7.22213 15.171 7.67146 15.7253 7.67146V7.51397V7.35647C15.3449 7.35647 15.0366 7.04816 15.0366 6.66781H14.8791Z" fill="black" style="fill:black;fill-opacity:1;"/>
</svg>
