<svg width="36" height="55" viewBox="0 0 36 55" fill="none" xmlns="http://www.w3.org/2000/svg">
<path d="M15.9199 38.4453C12.7656 38.4453 10.9102 36.293 10.9102 33.25V32.7305C10.9102 28.3516 13.1738 25.457 17.5527 22.8965C22.3398 20.0391 23.7871 18.1836 23.7871 14.7695C23.7871 11.1328 20.9668 8.60938 16.8848 8.60938C13.248 8.60938 10.7988 10.3906 9.61133 13.6934C8.68359 16.0684 7.01367 17.1074 4.75 17.1074C1.81836 17.1074 0 15.2891 0 12.4688C0 10.873 0.371094 9.46289 1.11328 8.05273C3.48828 3.1543 9.42578 0 17.4043 0C27.9434 0 35.0312 5.78906 35.0312 14.4355C35.0312 20.0391 32.3223 23.8613 27.0898 26.9414C22.1543 29.7988 21.041 31.3945 20.5586 34.5117C20.002 36.998 18.5547 38.4453 15.9199 38.4453ZM15.9941 54.959C12.6543 54.959 9.94531 52.3984 9.94531 49.1328C9.94531 45.8672 12.6543 43.3066 15.9941 43.3066C19.3711 43.3066 22.0801 45.8672 22.0801 49.1328C22.0801 52.3984 19.3711 54.959 15.9941 54.959Z" fill="#43454A" style="fill:#43454A;fill:color(display-p3 0.2627 0.2706 0.2902);fill-opacity:1;"/>
</svg>
