<svg width="20" height="21" viewBox="0 0 20 21" fill="none" xmlns="http://www.w3.org/2000/svg">
<path fill-rule="evenodd" clip-rule="evenodd" d="M9.82849 1.58557C9.94289 1.55219 10.0644 1.5522 10.1788 1.58562L17.6753 3.77547C17.9418 3.85333 18.125 4.09772 18.125 4.3754V8.86626C18.125 13.8839 14.9041 17.8775 10.1987 19.4454C10.0704 19.4881 9.9318 19.4881 9.80357 19.4454C5.09686 17.8776 1.875 13.8829 1.875 8.86417V4.3754C1.875 4.09766 2.05829 3.85324 2.3249 3.77542L9.82849 1.58557ZM3.125 4.84407V8.86417C3.125 13.2193 5.85938 16.7322 10.0011 18.1918C14.1415 16.7322 16.875 13.2202 16.875 8.86626V4.84394L10.0035 2.83664L3.125 4.84407Z" fill="#E3E5E9" style="fill:#E3E5E9;fill:color(display-p3 0.8902 0.8980 0.9137);fill-opacity:1;"/>
<path fill-rule="evenodd" clip-rule="evenodd" d="M10 6.56055C9.19458 6.56055 8.54167 7.21346 8.54167 8.01888C8.54167 8.8243 9.19458 9.47721 10 9.47721C10.8054 9.47721 11.4583 8.8243 11.4583 8.01888C11.4583 7.21346 10.8054 6.56055 10 6.56055ZM7.29167 8.01888C7.29167 6.52311 8.50423 5.31055 10 5.31055C11.4958 5.31055 12.7083 6.52311 12.7083 8.01888C12.7083 9.51465 11.4958 10.7272 10 10.7272C8.50423 10.7272 7.29167 9.51465 7.29167 8.01888Z" fill="#E3E5E9" style="fill:#E3E5E9;fill:color(display-p3 0.8902 0.8980 0.9137);fill-opacity:1;"/>
<path fill-rule="evenodd" clip-rule="evenodd" d="M6.04167 13.4355C6.04167 11.2494 7.81386 9.47721 10 9.47721C12.1861 9.47721 13.9583 11.2494 13.9583 13.4355C13.9583 13.7807 13.6785 14.0605 13.3333 14.0605C12.9882 14.0605 12.7083 13.7807 12.7083 13.4355C12.7083 11.9398 11.4958 10.7272 10 10.7272C8.50422 10.7272 7.29167 11.9398 7.29167 13.4355C7.29167 13.7807 7.01184 14.0605 6.66667 14.0605C6.32149 14.0605 6.04167 13.7807 6.04167 13.4355Z" fill="#E3E5E9" style="fill:#E3E5E9;fill:color(display-p3 0.8902 0.8980 0.9137);fill-opacity:1;"/>
</svg>
