<svg width="23" height="22" viewBox="0 0 23 22" fill="none" xmlns="http://www.w3.org/2000/svg">
<g clip-path="url(#clip0_1192_9050)">
<path d="M2.98242 15.6298V12.9719C2.98242 12.538 3.3342 12.1862 3.76814 12.1862C4.20207 12.1862 4.55385 12.538 4.55385 12.9719V15.6298C4.55385 16.6434 5.50706 17.6216 6.8936 17.6217H16.1063C17.4855 17.6217 18.4471 16.6421 18.4471 15.6298V12.9719C18.4471 12.538 18.7989 12.1862 19.2328 12.1862C19.6665 12.1865 20.0185 12.5381 20.0185 12.9719V15.6298C20.0185 17.6792 18.1738 19.1932 16.1063 19.1932H6.8936C4.81549 19.193 2.98242 17.6777 2.98242 15.6298ZM10.7096 3.5904C10.7096 3.15646 11.0614 2.80469 11.4953 2.80469C11.9292 2.80484 12.2811 3.15656 12.2811 3.5904V11.8885L15.1845 8.99219C15.4917 8.686 15.9892 8.68717 16.2956 8.99423C16.6018 9.30143 16.6016 9.79888 16.2946 10.1053L12.0499 14.3398C11.743 14.6459 11.2465 14.646 10.9398 14.3398L6.70433 10.1043C6.39763 9.79744 6.39763 9.30002 6.70433 8.99321C6.99198 8.70557 7.44744 8.68734 7.75605 8.93899L7.81538 8.99321L10.7096 11.8864V3.5904Z" fill="black" style="fill:black;fill-opacity:1;"/>
</g>
<defs>
<clipPath id="clip0_1192_9050">
<rect width="22" height="22" fill="white" style="fill:white;fill-opacity:1;" transform="translate(0.5)"/>
</clipPath>
</defs>
</svg>
