<svg width="24" height="24" viewBox="0 0 24 24" fill="none" xmlns="http://www.w3.org/2000/svg">
<path d="M19.329 3.32903C19.7 2.95803 20.3018 2.95803 20.6728 3.32903C21.0437 3.70003 21.0438 4.30181 20.6728 4.67278L13.3447 12.0009L20.6728 19.329C21.0437 19.7 21.0438 20.3018 20.6728 20.6728C20.3018 21.0438 19.7 21.0437 19.329 20.6728L12.0009 13.3447L4.67278 20.6728C4.30181 21.0438 3.70003 21.0437 3.32903 20.6728C2.95803 20.3018 2.95803 19.7 3.32903 19.329L10.6572 12.0009L3.32903 4.67278C2.95803 4.30178 2.95803 3.70003 3.32903 3.32903C3.70003 2.95803 4.30178 2.95803 4.67278 3.32903L12.0009 10.6572L19.329 3.32903Z" fill="white" fill-opacity="0.6" style="fill:white;fill-opacity:0.6;"/>
</svg>
