<svg width="20" height="21" viewBox="0 0 20 21" fill="none" xmlns="http://www.w3.org/2000/svg">
<path fill-rule="evenodd" clip-rule="evenodd" d="M1.04102 3.64453C1.04102 3.29935 1.32084 3.01953 1.66602 3.01953H18.3327C18.6779 3.01953 18.9577 3.29935 18.9577 3.64453V16.1445C18.9577 16.4897 18.6779 16.7695 18.3327 16.7695H12.3416L10.4413 18.6698C10.1972 18.9139 9.80148 18.9139 9.55741 18.6698L7.65713 16.7695H1.66602C1.32084 16.7695 1.04102 16.4897 1.04102 16.1445V3.64453ZM2.29102 4.26953V15.5195H7.91602C8.08178 15.5195 8.24075 15.5854 8.35796 15.7026L9.99935 17.344L11.6407 15.7026C11.758 15.5854 11.9169 15.5195 12.0827 15.5195H17.7077V4.26953H2.29102Z" fill="#E3E5E9" style="fill:#E3E5E9;fill:color(display-p3 0.8902 0.8980 0.9137);fill-opacity:1;"/>
<path fill-rule="evenodd" clip-rule="evenodd" d="M9.99935 9.26953C10.3445 9.26953 10.6243 9.54935 10.6243 9.89453V13.6445C10.6243 13.9897 10.3445 14.2695 9.99935 14.2695C9.65417 14.2695 9.37435 13.9897 9.37435 13.6445V9.89453C9.37435 9.54935 9.65417 9.26953 9.99935 9.26953Z" fill="#E3E5E9" style="fill:#E3E5E9;fill:color(display-p3 0.8902 0.8980 0.9137);fill-opacity:1;"/>
<path fill-rule="evenodd" clip-rule="evenodd" d="M9.99935 6.35286C10.3445 6.35286 10.6243 6.63269 10.6243 6.97786V7.39453C10.6243 7.73971 10.3445 8.01953 9.99935 8.01953C9.65417 8.01953 9.37435 7.73971 9.37435 7.39453V6.97786C9.37435 6.63269 9.65417 6.35286 9.99935 6.35286Z" fill="#E3E5E9" style="fill:#E3E5E9;fill:color(display-p3 0.8902 0.8980 0.9137);fill-opacity:1;"/>
</svg>
